<?xml version="1.0" encoding="iso-8859-1"?>
<!-- Generator: Adobe Illustrator 20.1.0, SVG Export Plug-In . SVG Version: 6.00 Build 0)  -->
<svg xmlns="http://www.w3.org/2000/svg" xmlns:xlink="http://www.w3.org/1999/xlink" version="1.1" id="&#1057;&#1083;&#1086;&#1081;_1" x="0px" y="0px" viewBox="0 0 64 64" style="enable-background:new 0 0 64 64;" xml:space="preserve" width="64px" height="64px">
<linearGradient id="SVGID_1__46106" gradientUnits="userSpaceOnUse" x1="32" y1="25.25" x2="32" y2="34" spreadMethod="reflect">
	<stop offset="0" style="stop-color:#6DC7FF"/>
	<stop offset="1" style="stop-color:#E6ABFF"/>
</linearGradient>
<path style="fill:url(#SVGID_1__46106);" d="M40,32H24c-1.657,0-3-1.343-3-3v0c0-1.657,1.343-3,3-3h16c1.657,0,3,1.343,3,3v0  C43,30.657,41.657,32,40,32z"/>
<linearGradient id="SVGID_2__46106" gradientUnits="userSpaceOnUse" x1="32" y1="7" x2="32" y2="57.0006" spreadMethod="reflect">
	<stop offset="0" style="stop-color:#1A6DFF"/>
	<stop offset="1" style="stop-color:#C822FF"/>
</linearGradient>
<path style="fill:url(#SVGID_2__46106);" d="M57.685,17.131l-3.236-6.471C53.936,9.636,52.906,9,51.762,9H12.238  c-1.145,0-2.174,0.636-2.687,1.66l-3.236,6.471C6.109,17.546,6,18.01,6,18.473V20v3v26.979C6,52.748,8.252,55,11.021,55h41.959  C55.748,55,58,52.748,58,49.979V23v-3v-1.527C58,18.01,57.891,17.546,57.685,17.131z M55.403,17.041C55.27,17.023,55.138,17,55,17H9  c-0.138,0-0.27,0.023-0.403,0.041L9.618,15h44.764L55.403,17.041z M12.238,11h39.523c0.383,0,0.727,0.213,0.897,0.555L53.382,13  H10.618l0.723-1.445C11.512,11.213,11.855,11,12.238,11z M22.618,53l0.722-1.445C23.512,51.213,23.855,51,24.237,51h15.525  c0.382,0,0.726,0.213,0.896,0.554L41.382,53H22.618z M56,49.979C56,51.645,54.645,53,52.979,53h-9.361l-1.171-2.342  C41.935,49.636,40.906,49,39.763,49H24.237c-1.144,0-2.172,0.636-2.686,1.659L20.382,53h-9.361C9.355,53,8,51.645,8,49.979V23v-3  c0-0.552,0.448-1,1-1h46c0.552,0,1,0.448,1,1v3V49.979z"/>
<linearGradient id="SVGID_3__46106" gradientUnits="userSpaceOnUse" x1="32" y1="7" x2="32" y2="57.0006" spreadMethod="reflect">
	<stop offset="0" style="stop-color:#1A6DFF"/>
	<stop offset="1" style="stop-color:#C822FF"/>
</linearGradient>
<path style="fill:url(#SVGID_3__46106);" d="M44,29c0-2.206-1.794-4-4-4H24c-2.206,0-4,1.794-4,4s1.794,4,4,4h16  C42.206,33,44,31.206,44,29z M22,29c0-1.103,0.897-2,2-2h16c1.103,0,2,0.897,2,2s-0.897,2-2,2H24C22.897,31,22,30.103,22,29z"/>
<linearGradient id="SVGID_4__46106" gradientUnits="userSpaceOnUse" x1="45" y1="7" x2="45" y2="57" spreadMethod="reflect">
	<stop offset="0" style="stop-color:#1A6DFF"/>
	<stop offset="1" style="stop-color:#C822FF"/>
</linearGradient>
<rect x="38" y="45" style="fill:url(#SVGID_4__46106);" width="14" height="2"/>
<linearGradient id="SVGID_5__46106" gradientUnits="userSpaceOnUse" x1="46" y1="7" x2="46" y2="57" spreadMethod="reflect">
	<stop offset="0" style="stop-color:#1A6DFF"/>
	<stop offset="1" style="stop-color:#C822FF"/>
</linearGradient>
<rect x="40" y="41" style="fill:url(#SVGID_5__46106);" width="12" height="2"/>
<linearGradient id="SVGID_6__46106" gradientUnits="userSpaceOnUse" x1="13" y1="7" x2="13" y2="57.0006" spreadMethod="reflect">
	<stop offset="0" style="stop-color:#1A6DFF"/>
	<stop offset="1" style="stop-color:#C822FF"/>
</linearGradient>
<rect x="12" y="43" style="fill:url(#SVGID_6__46106);" width="2" height="4"/>
<linearGradient id="SVGID_7__46106" gradientUnits="userSpaceOnUse" x1="17" y1="7" x2="17" y2="57.0006" spreadMethod="reflect">
	<stop offset="0" style="stop-color:#1A6DFF"/>
	<stop offset="1" style="stop-color:#C822FF"/>
</linearGradient>
<rect x="16" y="43" style="fill:url(#SVGID_7__46106);" width="2" height="4"/>
<linearGradient id="SVGID_8__46106" gradientUnits="userSpaceOnUse" x1="21" y1="7" x2="21" y2="57.0006" spreadMethod="reflect">
	<stop offset="0" style="stop-color:#1A6DFF"/>
	<stop offset="1" style="stop-color:#C822FF"/>
</linearGradient>
<rect x="20" y="43" style="fill:url(#SVGID_8__46106);" width="2" height="4"/>
</svg>
